# xmcd CD database file
#
# Track frame offsets:
#	150
#	17232
#	37785
#	55810
#	69265
#	88690
#	102607
#	125837
#	140500
#	161500
#	182232
#
# Disc length: 2613 seconds
#
# Revision: 0
# Processed by: cddbd v1.5.1PL2 Copyright (c) Steve Scherf et al.
# Submitted via: CDex 1.51
#
DISCID=960a330b
DTITLE=スターダスト・レビュー - Voice  -Stardust Revue-
DYEAR=2002
DGENRE=JPop
TTITLE0=街まで50マイル-My Old Friend-
TTITLE1=Baby,It’s You
TTITLE2=Be-Bop Doo Wop
TTITLE3=After-Glow
TTITLE4=今夜だけきっと
TTITLE5=危険なJealous Night
TTITLE6=さよならの足音
TTITLE7=6月のジングル・ベル
TTITLE8=You And I
TTITLE9=1%の物語
TTITLE10=今夜だけきっと(Live)
EXTD=YEAR: 2002
EXTT0=
EXTT1=
EXTT2=
EXTT3=
EXTT4=
EXTT5=
EXTT6=
EXTT7=
EXTT8=
EXTT9=
EXTT10=
PLAYORDER=
